# xmcd
#
# Track frame offsets: 
#        150
#        12050
#        26345
#        38062
#        53525
#        66060
#        81005
#        93855
#
# Disc length: 1420 seconds
#
# Revision: 0
# Processed by: cddbd v1.4PL0 Copyright (c) Steve Scherf et al.
# Submitted via: ExactAudioCopy v0.90b4
#
DISCID=4b058a08
DTITLE=George Jones - Songs From The Heart
DYEAR=1900
DGENRE=Country
TTITLE0=Beneath Still Waters
TTITLE1=Mama's Hungry Eyes
TTITLE2=Small Time Laboring Man
TTITLE3=Last One To Touch Me
TTITLE4=Sweeter Than The Flowers (With Gene Pitney)
TTITLE5=Soldier's Last Letter
TTITLE6=Flowers For Mama
TTITLE7=Will You Visit Me On Sunday
EXTD=
EXTT0=
EXTT1=
EXTT2=
EXTT3=
EXTT4=
EXTT5=
EXTT6=
EXTT7=
PLAYORDER=
